<?xml version="1.0" encoding="UTF-8" standalone="no"?>
<!DOCTYPE svg PUBLIC "-//W3C//DTD SVG 1.1//EN"
 "http://www.w3.org/Graphics/SVG/1.1/DTD/svg11.dtd">
<!-- Generated by graphviz version 2.40.1 (20161225.0304)
 -->
<!-- Title: dependencies Pages: 1 -->
<svg width="4285pt" height="284pt"
 viewBox="0.00 0.00 4285.00 284.00" xmlns="http://www.w3.org/2000/svg" xmlns:xlink="http://www.w3.org/1999/xlink">
<g id="graph0" class="graph" transform="scale(1 1) rotate(0) translate(4 280)">
<title>dependencies</title>
<polygon fill="#ffffff" stroke="transparent" points="-4,4 -4,-280 4281,-280 4281,4 -4,4"/>
<text text-anchor="start" x="2117.5091" y="-42.4" font-family="sans-serif" font-weight="bold" font-size="14.00" fill="#000000">Legend</text>
<polygon fill="#ffffb3" stroke="transparent" points="1904.5,-10 1904.5,-30 1924.5,-30 1924.5,-10 1904.5,-10"/>
<text text-anchor="start" x="1928.129" y="-15.4" font-family="sans-serif" font-size="14.00" fill="#000000"> &#160;Declarations</text>
<polygon fill="#8dd3c7" stroke="transparent" points="2017.5,-10 2017.5,-30 2037.5,-30 2037.5,-10 2017.5,-10"/>
<text text-anchor="start" x="2041.2251" y="-15.4" font-family="sans-serif" font-size="14.00" fill="#000000"> &#160;Module</text>
<polygon fill="#80b1d3" stroke="transparent" points="2103.5,-10 2103.5,-30 2123.5,-30 2123.5,-10 2103.5,-10"/>
<text text-anchor="start" x="2127.2812" y="-15.4" font-family="sans-serif" font-size="14.00" fill="#000000"> &#160;Bootstrap</text>
<polygon fill="#fdb462" stroke="transparent" points="2200.5,-10 2200.5,-30 2220.5,-30 2220.5,-10 2200.5,-10"/>
<text text-anchor="start" x="2224.1732" y="-15.4" font-family="sans-serif" font-size="14.00" fill="#000000"> &#160;Providers</text>
<polygon fill="#fb8072" stroke="transparent" points="2296.5,-10 2296.5,-30 2316.5,-30 2316.5,-10 2296.5,-10"/>
<text text-anchor="start" x="2320.2258" y="-15.4" font-family="sans-serif" font-size="14.00" fill="#000000"> &#160;Exports</text>
<g id="clust1" class="cluster">
<title>cluster_AppModule</title>
<polygon fill="none" stroke="#000000" stroke-dasharray="1,5" points="8,-70 8,-268 4269,-268 4269,-70 8,-70"/>
</g>
<g id="clust2" class="cluster">
<title>cluster_AppModule_declarations</title>
<polygon fill="none" stroke="#000000" points="870,-78 870,-130 4261,-130 4261,-78 870,-78"/>
</g>
<g id="clust26" class="cluster">
<title>cluster_AppModule_bootstrap</title>
<polygon fill="none" stroke="#000000" points="1992,-208 1992,-260 2138,-260 2138,-208 1992,-208"/>
</g>
<g id="clust27" class="cluster">
<title>cluster_AppModule_providers</title>
<polygon fill="none" stroke="#000000" points="16,-78 16,-130 862,-130 862,-78 16,-78"/>
</g>
<!-- AdminComponent -->
<g id="node1" class="node">
<title>AdminComponent</title>
<polygon fill="#ffffb3" stroke="#000000" points="4253.2204,-122 4132.7796,-122 4132.7796,-86 4253.2204,-86 4253.2204,-122"/>
<text text-anchor="middle" x="4193" y="-99.8" font-family="Times,serif" font-size="14.00" fill="#000000">AdminComponent</text>
</g>
<!-- AppModule -->
<g id="node22" class="node">
<title>AppModule</title>
<polygon fill="#8dd3c7" stroke="#000000" points="2106.6571,-187 2103.6571,-191 2082.6571,-191 2079.6571,-187 2023.3429,-187 2023.3429,-151 2106.6571,-151 2106.6571,-187"/>
<text text-anchor="middle" x="2065" y="-164.8" font-family="Times,serif" font-size="14.00" fill="#000000">AppModule</text>
</g>
<!-- AdminComponent&#45;&gt;AppModule -->
<g id="edge1" class="edge">
<title>AdminComponent&#45;&gt;AppModule</title>
<path fill="none" stroke="#000000" d="M4193,-122.3802C4193,-146.2785 4193,-185 4193,-185 4193,-185 2117.0293,-185 2117.0293,-185"/>
<polygon fill="#000000" stroke="#000000" points="2117.0293,-181.5001 2107.0293,-185 2117.0292,-188.5001 2117.0293,-181.5001"/>
</g>
<!-- AutofocusDirective -->
<g id="node2" class="node">
<title>AutofocusDirective</title>
<polygon fill="#ffffb3" stroke="#000000" points="4115.4004,-122 3988.5996,-122 3988.5996,-86 4115.4004,-86 4115.4004,-122"/>
<text text-anchor="middle" x="4052" y="-99.8" font-family="Times,serif" font-size="14.00" fill="#000000">AutofocusDirective</text>
</g>
<!-- AutofocusDirective&#45;&gt;AppModule -->
<g id="edge2" class="edge">
<title>AutofocusDirective&#45;&gt;AppModule</title>
<path fill="none" stroke="#000000" d="M4052,-122.3228C4052,-145.6602 4052,-183 4052,-183 4052,-183 2116.9598,-183 2116.9598,-183"/>
<polygon fill="#000000" stroke="#000000" points="2116.9598,-179.5001 2106.9598,-183 2116.9597,-186.5001 2116.9598,-179.5001"/>
</g>
<!-- ContentComponent -->
<g id="node3" class="node">
<title>ContentComponent</title>
<polygon fill="#ffffb3" stroke="#000000" points="3970.6652,-122 3845.3348,-122 3845.3348,-86 3970.6652,-86 3970.6652,-122"/>
<text text-anchor="middle" x="3908" y="-99.8" font-family="Times,serif" font-size="14.00" fill="#000000">ContentComponent</text>
</g>
<!-- ContentComponent&#45;&gt;AppModule -->
<g id="edge3" class="edge">
<title>ContentComponent&#45;&gt;AppModule</title>
<path fill="none" stroke="#000000" d="M3908,-122.0109C3908,-144.4852 3908,-180 3908,-180 3908,-180 2116.9564,-180 2116.9564,-180"/>
<polygon fill="#000000" stroke="#000000" points="2116.9564,-176.5001 2106.9564,-180 2116.9564,-183.5001 2116.9564,-176.5001"/>
</g>
<!-- CreateRaceComponent -->
<g id="node4" class="node">
<title>CreateRaceComponent</title>
<polygon fill="#ffffb3" stroke="#000000" points="3826.8445,-122 3681.1555,-122 3681.1555,-86 3826.8445,-86 3826.8445,-122"/>
<text text-anchor="middle" x="3754" y="-99.8" font-family="Times,serif" font-size="14.00" fill="#000000">CreateRaceComponent</text>
</g>
<!-- CreateRaceComponent&#45;&gt;AppModule -->
<g id="edge4" class="edge">
<title>CreateRaceComponent&#45;&gt;AppModule</title>
<path fill="none" stroke="#000000" d="M3729.6926,-122.2843C3729.6926,-143.3211 3729.6926,-175 3729.6926,-175 3729.6926,-175 2116.9825,-175 2116.9825,-175"/>
<polygon fill="#000000" stroke="#000000" points="2116.9825,-171.5001 2106.9825,-175 2116.9825,-178.5001 2116.9825,-171.5001"/>
</g>
<!-- CreateRaceComponent&#45;&gt;AppModule -->
<g id="edge5" class="edge">
<title>CreateRaceComponent&#45;&gt;AppModule</title>
<path fill="none" stroke="#000000" d="M3778.3074,-122.2921C3778.3074,-144.2057 3778.3074,-178 3778.3074,-178 3778.3074,-178 2116.9262,-178 2116.9262,-178"/>
<polygon fill="#000000" stroke="#000000" points="2116.9262,-174.5001 2106.9262,-178 2116.9262,-181.5001 2116.9262,-174.5001"/>
</g>
<!-- FooterComponent -->
<g id="node5" class="node">
<title>FooterComponent</title>
<polygon fill="#ffffb3" stroke="#000000" points="3662.8809,-122 3545.1191,-122 3545.1191,-86 3662.8809,-86 3662.8809,-122"/>
<text text-anchor="middle" x="3604" y="-99.8" font-family="Times,serif" font-size="14.00" fill="#000000">FooterComponent</text>
</g>
<!-- FooterComponent&#45;&gt;AppModule -->
<g id="edge6" class="edge">
<title>FooterComponent&#45;&gt;AppModule</title>
<path fill="none" stroke="#000000" d="M3604,-122.1289C3604,-142.5724 3604,-173 3604,-173 3604,-173 2116.9627,-173 2116.9627,-173"/>
<polygon fill="#000000" stroke="#000000" points="2116.9627,-169.5001 2106.9627,-173 2116.9627,-176.5001 2116.9627,-169.5001"/>
</g>
<!-- HeaderComponent -->
<g id="node6" class="node">
<title>HeaderComponent</title>
<polygon fill="#ffffb3" stroke="#000000" points="3526.7437,-122 3405.2563,-122 3405.2563,-86 3526.7437,-86 3526.7437,-122"/>
<text text-anchor="middle" x="3466" y="-99.8" font-family="Times,serif" font-size="14.00" fill="#000000">HeaderComponent</text>
</g>
<!-- HeaderComponent&#45;&gt;AppModule -->
<g id="edge7" class="edge">
<title>HeaderComponent&#45;&gt;AppModule</title>
<path fill="none" stroke="#000000" d="M3466,-122.308C3466,-142.1455 3466,-171 3466,-171 3466,-171 2116.9291,-171 2116.9291,-171"/>
<polygon fill="#000000" stroke="#000000" points="2116.9292,-167.5001 2106.9291,-171 2116.9291,-174.5001 2116.9292,-167.5001"/>
</g>
<!-- LiveresultlistComponent -->
<g id="node7" class="node">
<title>LiveresultlistComponent</title>
<polygon fill="#ffffb3" stroke="#000000" points="3387.7077,-122 3232.2923,-122 3232.2923,-86 3387.7077,-86 3387.7077,-122"/>
<text text-anchor="middle" x="3310" y="-99.8" font-family="Times,serif" font-size="14.00" fill="#000000">LiveresultlistComponent</text>
</g>
<!-- LiveresultlistComponent&#45;&gt;AppModule -->
<g id="edge8" class="edge">
<title>LiveresultlistComponent&#45;&gt;AppModule</title>
<path fill="none" stroke="#000000" d="M3310,-122.1686C3310,-141.0898 3310,-168 3310,-168 3310,-168 2116.7794,-168 2116.7794,-168"/>
<polygon fill="#000000" stroke="#000000" points="2116.7794,-164.5001 2106.7794,-168 2116.7793,-171.5001 2116.7794,-164.5001"/>
</g>
<!-- MilliSecondsToTimePipe -->
<g id="node8" class="node">
<title>MilliSecondsToTimePipe</title>
<polygon fill="#ffffb3" stroke="#000000" points="3214.1526,-122 3053.8474,-122 3053.8474,-86 3214.1526,-86 3214.1526,-122"/>
<text text-anchor="middle" x="3134" y="-99.8" font-family="Times,serif" font-size="14.00" fill="#000000">MilliSecondsToTimePipe</text>
</g>
<!-- MilliSecondsToTimePipe&#45;&gt;AppModule -->
<g id="edge9" class="edge">
<title>MilliSecondsToTimePipe&#45;&gt;AppModule</title>
<path fill="none" stroke="#000000" d="M3134,-122.2667C3134,-140.5552 3134,-166 3134,-166 3134,-166 2116.9061,-166 2116.9061,-166"/>
<polygon fill="#000000" stroke="#000000" points="2116.9061,-162.5001 2106.9061,-166 2116.906,-169.5001 2116.9061,-162.5001"/>
</g>
<!-- NavigationcardsComponent -->
<g id="node9" class="node">
<title>NavigationcardsComponent</title>
<polygon fill="#ffffb3" stroke="#000000" points="3035.5744,-122 2862.4256,-122 2862.4256,-86 3035.5744,-86 3035.5744,-122"/>
<text text-anchor="middle" x="2949" y="-99.8" font-family="Times,serif" font-size="14.00" fill="#000000">NavigationcardsComponent</text>
</g>
<!-- NavigationcardsComponent&#45;&gt;AppModule -->
<g id="edge10" class="edge">
<title>NavigationcardsComponent&#45;&gt;AppModule</title>
<path fill="none" stroke="#000000" d="M2949,-122.0225C2949,-139.3734 2949,-163 2949,-163 2949,-163 2116.7465,-163 2116.7465,-163"/>
<polygon fill="#000000" stroke="#000000" points="2116.7465,-159.5001 2106.7465,-163 2116.7465,-166.5001 2116.7465,-159.5001"/>
</g>
<!-- ParticipantToRankPipe -->
<g id="node10" class="node">
<title>ParticipantToRankPipe</title>
<polygon fill="#ffffb3" stroke="#000000" points="2844.1414,-122 2697.8586,-122 2697.8586,-86 2844.1414,-86 2844.1414,-122"/>
<text text-anchor="middle" x="2771" y="-99.8" font-family="Times,serif" font-size="14.00" fill="#000000">ParticipantToRankPipe</text>
</g>
<!-- ParticipantToRankPipe&#45;&gt;AppModule -->
<g id="edge11" class="edge">
<title>ParticipantToRankPipe&#45;&gt;AppModule</title>
<path fill="none" stroke="#000000" d="M2771,-122.0352C2771,-138.7344 2771,-161 2771,-161 2771,-161 2116.7881,-161 2116.7881,-161"/>
<polygon fill="#000000" stroke="#000000" points="2116.7882,-157.5001 2106.7881,-161 2116.7881,-164.5001 2116.7882,-157.5001"/>
</g>
<!-- ParticipantToSexRankPipe -->
<g id="node11" class="node">
<title>ParticipantToSexRankPipe</title>
<polygon fill="#ffffb3" stroke="#000000" points="2679.6386,-122 2512.3614,-122 2512.3614,-86 2679.6386,-86 2679.6386,-122"/>
<text text-anchor="middle" x="2596" y="-99.8" font-family="Times,serif" font-size="14.00" fill="#000000">ParticipantToSexRankPipe</text>
</g>
<!-- ParticipantToSexRankPipe&#45;&gt;AppModule -->
<g id="edge12" class="edge">
<title>ParticipantToSexRankPipe&#45;&gt;AppModule</title>
<path fill="none" stroke="#000000" d="M2596,-122.0091C2596,-138.0494 2596,-159 2596,-159 2596,-159 2116.6667,-159 2116.6667,-159"/>
<polygon fill="#000000" stroke="#000000" points="2116.6667,-155.5001 2106.6667,-159 2116.6666,-162.5001 2116.6667,-155.5001"/>
</g>
<!-- ParticipantracechooserComponent -->
<g id="node12" class="node">
<title>ParticipantracechooserComponent</title>
<polygon fill="#ffffb3" stroke="#000000" points="2494.3207,-122 2285.6793,-122 2285.6793,-86 2494.3207,-86 2494.3207,-122"/>
<text text-anchor="middle" x="2390" y="-99.8" font-family="Times,serif" font-size="14.00" fill="#000000">ParticipantracechooserComponent</text>
</g>
<!-- ParticipantracechooserComponent&#45;&gt;AppModule -->
<g id="edge13" class="edge">
<title>ParticipantracechooserComponent&#45;&gt;AppModule</title>
<path fill="none" stroke="#000000" d="M2390,-122.1871C2390,-137.1824 2390,-156 2390,-156 2390,-156 2116.8227,-156 2116.8227,-156"/>
<polygon fill="#000000" stroke="#000000" points="2116.8228,-152.5001 2106.8227,-156 2116.8227,-159.5001 2116.8228,-152.5001"/>
</g>
<!-- PoliciesComponent -->
<g id="node13" class="node">
<title>PoliciesComponent</title>
<polygon fill="#ffffb3" stroke="#000000" points="2267.6611,-122 2142.3389,-122 2142.3389,-86 2267.6611,-86 2267.6611,-122"/>
<text text-anchor="middle" x="2205" y="-99.8" font-family="Times,serif" font-size="14.00" fill="#000000">PoliciesComponent</text>
</g>
<!-- PoliciesComponent&#45;&gt;AppModule -->
<g id="edge14" class="edge">
<title>PoliciesComponent&#45;&gt;AppModule</title>
<path fill="none" stroke="#000000" d="M2205,-122.0511C2205,-136.373 2205,-154 2205,-154 2205,-154 2117.0046,-154 2117.0046,-154"/>
<polygon fill="#000000" stroke="#000000" points="2117.0047,-150.5001 2107.0046,-154 2117.0046,-157.5001 2117.0047,-150.5001"/>
</g>
<!-- RaceToStringPipe -->
<g id="node14" class="node">
<title>RaceToStringPipe</title>
<polygon fill="#ffffb3" stroke="#000000" points="2124.1457,-122 2005.8543,-122 2005.8543,-86 2124.1457,-86 2124.1457,-122"/>
<text text-anchor="middle" x="2065" y="-99.8" font-family="Times,serif" font-size="14.00" fill="#000000">RaceToStringPipe</text>
</g>
<!-- RaceToStringPipe&#45;&gt;AppModule -->
<g id="edge15" class="edge">
<title>RaceToStringPipe&#45;&gt;AppModule</title>
<path fill="none" stroke="#000000" d="M2065,-122.1061C2065,-122.1061 2065,-140.991 2065,-140.991"/>
<polygon fill="#000000" stroke="#000000" points="2061.5001,-140.9909 2065,-150.991 2068.5001,-140.991 2061.5001,-140.9909"/>
</g>
<!-- RegisterparticipantComponent -->
<g id="node15" class="node">
<title>RegisterparticipantComponent</title>
<polygon fill="#ffffb3" stroke="#000000" points="1987.8515,-122 1800.1485,-122 1800.1485,-86 1987.8515,-86 1987.8515,-122"/>
<text text-anchor="middle" x="1894" y="-99.8" font-family="Times,serif" font-size="14.00" fill="#000000">RegisterparticipantComponent</text>
</g>
<!-- RegisterparticipantComponent&#45;&gt;AppModule -->
<g id="edge16" class="edge">
<title>RegisterparticipantComponent&#45;&gt;AppModule</title>
<path fill="none" stroke="#000000" d="M1894,-122.0511C1894,-136.373 1894,-154 1894,-154 1894,-154 2013.1687,-154 2013.1687,-154"/>
<polygon fill="#000000" stroke="#000000" points="2013.1687,-157.5001 2023.1687,-154 2013.1687,-150.5001 2013.1687,-157.5001"/>
</g>
<!-- ResultlistComponent -->
<g id="node16" class="node">
<title>ResultlistComponent</title>
<polygon fill="#ffffb3" stroke="#000000" points="1782.226,-122 1647.774,-122 1647.774,-86 1782.226,-86 1782.226,-122"/>
<text text-anchor="middle" x="1715" y="-99.8" font-family="Times,serif" font-size="14.00" fill="#000000">ResultlistComponent</text>
</g>
<!-- ResultlistComponent&#45;&gt;AppModule -->
<g id="edge17" class="edge">
<title>ResultlistComponent&#45;&gt;AppModule</title>
<path fill="none" stroke="#000000" d="M1737.371,-122.1871C1737.371,-137.1824 1737.371,-156 1737.371,-156 1737.371,-156 2013.1728,-156 2013.1728,-156"/>
<polygon fill="#000000" stroke="#000000" points="2013.1728,-159.5001 2023.1728,-156 2013.1727,-152.5001 2013.1728,-159.5001"/>
</g>
<!-- ResultlistComponent&#45;&gt;AppModule -->
<g id="edge18" class="edge">
<title>ResultlistComponent&#45;&gt;AppModule</title>
<path fill="none" stroke="#000000" d="M1692.629,-122.0091C1692.629,-138.0494 1692.629,-159 1692.629,-159 1692.629,-159 2013.0082,-159 2013.0082,-159"/>
<polygon fill="#000000" stroke="#000000" points="2013.0082,-162.5001 2023.0082,-159 2013.0081,-155.5001 2013.0082,-162.5001"/>
</g>
<!-- SexEnglishToGermanPipe -->
<g id="node17" class="node">
<title>SexEnglishToGermanPipe</title>
<polygon fill="#ffffb3" stroke="#000000" points="1629.8033,-122 1464.1967,-122 1464.1967,-86 1629.8033,-86 1629.8033,-122"/>
<text text-anchor="middle" x="1547" y="-99.8" font-family="Times,serif" font-size="14.00" fill="#000000">SexEnglishToGermanPipe</text>
</g>
<!-- SexEnglishToGermanPipe&#45;&gt;AppModule -->
<g id="edge19" class="edge">
<title>SexEnglishToGermanPipe&#45;&gt;AppModule</title>
<path fill="none" stroke="#000000" d="M1547,-122.0352C1547,-138.7344 1547,-161 1547,-161 1547,-161 2013.0487,-161 2013.0487,-161"/>
<polygon fill="#000000" stroke="#000000" points="2013.0487,-164.5001 2023.0487,-161 2013.0486,-157.5001 2013.0487,-164.5001"/>
</g>
<!-- SortParticipantListPipe -->
<g id="node18" class="node">
<title>SortParticipantListPipe</title>
<polygon fill="#ffffb3" stroke="#000000" points="1446.1498,-122 1299.8502,-122 1299.8502,-86 1446.1498,-86 1446.1498,-122"/>
<text text-anchor="middle" x="1373" y="-99.8" font-family="Times,serif" font-size="14.00" fill="#000000">SortParticipantListPipe</text>
</g>
<!-- SortParticipantListPipe&#45;&gt;AppModule -->
<g id="edge20" class="edge">
<title>SortParticipantListPipe&#45;&gt;AppModule</title>
<path fill="none" stroke="#000000" d="M1373,-122.0225C1373,-139.3734 1373,-163 1373,-163 1373,-163 2013.2707,-163 2013.2707,-163"/>
<polygon fill="#000000" stroke="#000000" points="2013.2707,-166.5001 2023.2707,-163 2013.2706,-159.5001 2013.2707,-166.5001"/>
</g>
<!-- StartRaceComponent -->
<g id="node19" class="node">
<title>StartRaceComponent</title>
<polygon fill="#ffffb3" stroke="#000000" points="1281.752,-122 1146.248,-122 1146.248,-86 1281.752,-86 1281.752,-122"/>
<text text-anchor="middle" x="1214" y="-99.8" font-family="Times,serif" font-size="14.00" fill="#000000">StartRaceComponent</text>
</g>
<!-- StartRaceComponent&#45;&gt;AppModule -->
<g id="edge21" class="edge">
<title>StartRaceComponent&#45;&gt;AppModule</title>
<path fill="none" stroke="#000000" d="M1191.3747,-122.1686C1191.3747,-141.0898 1191.3747,-168 1191.3747,-168 1191.3747,-168 2013.1576,-168 2013.1576,-168"/>
<polygon fill="#000000" stroke="#000000" points="2013.1576,-171.5001 2023.1576,-168 2013.1575,-164.5001 2013.1576,-171.5001"/>
</g>
<!-- StartRaceComponent&#45;&gt;AppModule -->
<g id="edge22" class="edge">
<title>StartRaceComponent&#45;&gt;AppModule</title>
<path fill="none" stroke="#000000" d="M1236.6253,-122.2667C1236.6253,-140.5552 1236.6253,-166 1236.6253,-166 1236.6253,-166 2013.0679,-166 2013.0679,-166"/>
<polygon fill="#000000" stroke="#000000" points="2013.068,-169.5001 2023.0679,-166 2013.0679,-162.5001 2013.068,-169.5001"/>
</g>
<!-- StateToTextPipe -->
<g id="node20" class="node">
<title>StateToTextPipe</title>
<polygon fill="#ffffb3" stroke="#000000" points="1128.0912,-122 1017.9088,-122 1017.9088,-86 1128.0912,-86 1128.0912,-122"/>
<text text-anchor="middle" x="1073" y="-99.8" font-family="Times,serif" font-size="14.00" fill="#000000">StateToTextPipe</text>
</g>
<!-- StateToTextPipe&#45;&gt;AppModule -->
<g id="edge23" class="edge">
<title>StateToTextPipe&#45;&gt;AppModule</title>
<path fill="none" stroke="#000000" d="M1073,-122.308C1073,-142.1455 1073,-171 1073,-171 1073,-171 2013.3238,-171 2013.3238,-171"/>
<polygon fill="#000000" stroke="#000000" points="2013.3239,-174.5001 2023.3238,-171 2013.3238,-167.5001 2013.3239,-174.5001"/>
</g>
<!-- ViewerComponent -->
<g id="node21" class="node">
<title>ViewerComponent</title>
<polygon fill="#ffffb3" stroke="#000000" points="1000.0269,-122 877.9731,-122 877.9731,-86 1000.0269,-86 1000.0269,-122"/>
<text text-anchor="middle" x="939" y="-99.8" font-family="Times,serif" font-size="14.00" fill="#000000">ViewerComponent</text>
</g>
<!-- ViewerComponent&#45;&gt;AppModule -->
<g id="edge24" class="edge">
<title>ViewerComponent&#45;&gt;AppModule</title>
<path fill="none" stroke="#000000" d="M939,-122.1289C939,-142.5724 939,-173 939,-173 939,-173 2013.2527,-173 2013.2527,-173"/>
<polygon fill="#000000" stroke="#000000" points="2013.2527,-176.5001 2023.2527,-173 2013.2527,-169.5001 2013.2527,-176.5001"/>
</g>
<!-- ContentComponent  -->
<g id="node23" class="node">
<title>ContentComponent </title>
<polygon fill="#80b1d3" stroke="#000000" points="2129.6649,-252 2000.3351,-252 2000.3351,-216 2129.6649,-216 2129.6649,-252"/>
<text text-anchor="middle" x="2065" y="-229.8" font-family="Times,serif" font-size="14.00" fill="#000000">ContentComponent </text>
</g>
<!-- AppModule&#45;&gt;ContentComponent  -->
<g id="edge25" class="edge">
<title>AppModule&#45;&gt;ContentComponent </title>
<path fill="none" stroke="#000000" stroke-dasharray="1,5" d="M2065,-187.1061C2065,-187.1061 2065,-205.991 2065,-205.991"/>
<polygon fill="#000000" stroke="#000000" points="2061.5001,-205.9909 2065,-215.991 2068.5001,-205.991 2061.5001,-205.9909"/>
</g>
<!-- AdminService -->
<g id="node24" class="node">
<title>AdminService</title>
<ellipse fill="#fdb462" stroke="#000000" cx="787" cy="-104" rx="66.6325" ry="18"/>
<text text-anchor="middle" x="787" y="-99.8" font-family="Times,serif" font-size="14.00" fill="#000000">AdminService</text>
</g>
<!-- AdminService&#45;&gt;AppModule -->
<g id="edge26" class="edge">
<title>AdminService&#45;&gt;AppModule</title>
<path fill="none" stroke="#000000" d="M787,-122.2843C787,-143.3211 787,-175 787,-175 787,-175 2013.2052,-175 2013.2052,-175"/>
<polygon fill="#000000" stroke="#000000" points="2013.2053,-178.5001 2023.2052,-175 2013.2052,-171.5001 2013.2053,-178.5001"/>
</g>
<!-- LiveresultService -->
<g id="node25" class="node">
<title>LiveresultService</title>
<ellipse fill="#fdb462" stroke="#000000" cx="623" cy="-104" rx="79.2864" ry="18"/>
<text text-anchor="middle" x="623" y="-99.8" font-family="Times,serif" font-size="14.00" fill="#000000">LiveresultService</text>
</g>
<!-- LiveresultService&#45;&gt;AppModule -->
<g id="edge27" class="edge">
<title>LiveresultService&#45;&gt;AppModule</title>
<path fill="none" stroke="#000000" d="M623,-122.2921C623,-144.2057 623,-178 623,-178 623,-178 2013.0126,-178 2013.0126,-178"/>
<polygon fill="#000000" stroke="#000000" points="2013.0126,-181.5001 2023.0126,-178 2013.0125,-174.5001 2013.0126,-181.5001"/>
</g>
<!-- ParticipantService -->
<g id="node26" class="node">
<title>ParticipantService</title>
<ellipse fill="#fdb462" stroke="#000000" cx="444" cy="-104" rx="81.6538" ry="18"/>
<text text-anchor="middle" x="444" y="-99.8" font-family="Times,serif" font-size="14.00" fill="#000000">ParticipantService</text>
</g>
<!-- ParticipantService&#45;&gt;AppModule -->
<g id="edge28" class="edge">
<title>ParticipantService&#45;&gt;AppModule</title>
<path fill="none" stroke="#000000" d="M444,-122.0109C444,-144.4852 444,-180 444,-180 444,-180 2013.3011,-180 2013.3011,-180"/>
<polygon fill="#000000" stroke="#000000" points="2013.3012,-183.5001 2023.3011,-180 2013.3011,-176.5001 2013.3012,-183.5001"/>
</g>
<!-- ViewerService -->
<g id="node27" class="node">
<title>ViewerService</title>
<ellipse fill="#fdb462" stroke="#000000" cx="276" cy="-104" rx="68.3131" ry="18"/>
<text text-anchor="middle" x="276" y="-99.8" font-family="Times,serif" font-size="14.00" fill="#000000">ViewerService</text>
</g>
<!-- ViewerService&#45;&gt;AppModule -->
<g id="edge29" class="edge">
<title>ViewerService&#45;&gt;AppModule</title>
<path fill="none" stroke="#000000" d="M276,-122.3228C276,-145.6602 276,-183 276,-183 276,-183 2012.9777,-183 2012.9777,-183"/>
<polygon fill="#000000" stroke="#000000" points="2012.9778,-186.5001 2022.9777,-183 2012.9777,-179.5001 2012.9778,-186.5001"/>
</g>
<!-- WebsocketService -->
<g id="node28" class="node">
<title>WebsocketService</title>
<ellipse fill="#fdb462" stroke="#000000" cx="107" cy="-104" rx="82.7839" ry="18"/>
<text text-anchor="middle" x="107" y="-99.8" font-family="Times,serif" font-size="14.00" fill="#000000">WebsocketService</text>
</g>
<!-- WebsocketService&#45;&gt;AppModule -->
<g id="edge30" class="edge">
<title>WebsocketService&#45;&gt;AppModule</title>
<path fill="none" stroke="#000000" d="M107,-122.3802C107,-146.2785 107,-185 107,-185 107,-185 2013.1985,-185 2013.1985,-185"/>
<polygon fill="#000000" stroke="#000000" points="2013.1986,-188.5001 2023.1985,-185 2013.1985,-181.5001 2013.1986,-188.5001"/>
</g>
</g>
</svg>
